<svg width="171" height="42" viewBox="0 0 171 42" fill="none" xmlns="http://www.w3.org/2000/svg">
<g clip-path="url(#clip0_259_9)">
<path d="M19.5003 41.9942C15.6853 41.9942 11.8641 41.9942 8.0492 41.9942C7.44882 41.9942 7.44882 41.9942 7.44882 41.3724C7.44882 39.3866 7.43005 37.3945 7.45507 35.4087C7.49259 32.7821 8.53701 30.5869 10.3757 28.7724C10.6384 28.5123 10.6446 28.4235 10.3507 28.2014C8.56203 26.8881 7.17989 25.2259 6.20427 23.2211C6.00414 22.8087 5.83528 22.3773 5.72271 21.9332C5.63515 21.5906 5.46004 21.4954 5.12858 21.5017C3.79022 21.5398 2.5957 21.1528 1.5763 20.2455C0.162895 18.9893 -0.381203 16.8322 0.281722 15.0051C0.957155 13.1461 2.69577 11.8582 4.59699 11.8519C4.97848 11.8519 5.09731 11.706 5.1661 11.3634C6.27306 5.55823 10.7322 1.12983 16.5421 0.279678C19.4565 -0.145398 22.4084 -0.183464 25.2477 0.863364C30.1259 2.66518 33.0715 6.18633 34.1785 11.3126C34.2535 11.6679 34.3473 11.8329 34.7538 11.8519C36.7363 11.9597 38.5875 13.7171 38.9252 15.7664C39.4256 18.7673 37.2992 21.4002 34.2785 21.5017C33.9971 21.5144 33.7844 21.5335 33.6781 21.8697C32.7963 24.5534 31.114 26.6344 28.8813 28.2839C28.4623 28.5884 28.4685 28.5821 28.8375 28.9628C30.5761 30.79 31.5455 32.9471 31.558 35.5102C31.5643 37.4833 31.5455 39.4564 31.5705 41.4295C31.5705 41.8927 31.4267 42.0069 30.9889 42.0005C27.1552 41.9878 23.3277 41.9942 19.494 41.9942H19.5003ZM19.7379 28.6075C21.0826 28.5948 22.4272 28.69 23.7468 28.322C28.1871 27.0848 30.9952 24.2235 32.0646 19.6619C32.4649 17.9552 32.2647 16.2042 32.296 14.4721C32.296 14.2183 32.1271 14.1676 31.927 14.1105C28.3372 13.0827 25.4103 11.0906 23.2652 7.96276C23.0838 7.6963 22.9525 7.73436 22.7586 7.93104C22.2896 8.40052 21.7642 8.80657 21.2201 9.18723C17.1238 12.0295 12.5208 13.0764 7.64269 13.1081C7.15488 13.1081 7.07358 13.3111 7.06732 13.6918C7.06732 14.4467 7.06732 15.2081 7.06732 15.9631C7.05481 17.2256 7.04231 18.4818 7.33624 19.7253C8.34314 24.0522 10.9448 26.8818 15.1287 28.1951C16.6297 28.6646 18.1869 28.6519 19.7379 28.6075ZM19.5065 39.8054C21.045 39.8054 22.5773 39.8054 24.1157 39.8054C24.6911 39.8054 24.6911 39.8054 24.6911 39.2026C24.6911 38.4603 24.6974 37.718 24.6911 36.9758C24.6911 36.6458 24.7912 36.4809 25.1477 36.4999C25.5729 36.5253 25.9982 36.5253 26.4172 36.4999C26.78 36.4809 26.9113 36.6141 26.905 36.9821C26.8863 37.7815 26.905 38.5872 26.8988 39.3866C26.8988 39.6912 26.9988 39.8117 27.3053 39.8054C27.8306 39.7863 28.3622 39.78 28.8813 39.8054C29.2753 39.8244 29.4191 39.7038 29.4129 39.2851C29.3879 38.0226 29.4254 36.76 29.3941 35.5038C29.3441 33.2262 28.381 31.399 26.6486 29.9715C26.4422 29.8066 26.2546 29.7748 26.0045 29.87C25.5542 30.0413 25.0976 30.2063 24.6286 30.3268C24.3096 30.4093 24.1533 30.5489 24.0595 30.8915C23.4966 32.9851 21.6016 34.4316 19.4753 34.4253C17.3489 34.4253 15.5102 32.9661 14.9224 30.7963C14.8348 30.46 14.6785 30.3078 14.3595 30.2253C13.9342 30.1174 13.5215 29.9588 13.1149 29.7939C12.8898 29.6987 12.7022 29.7051 12.5021 29.8573C10.9948 31.0247 10.013 32.5347 9.70651 34.4316C9.43759 36.1066 9.63772 37.8069 9.6002 39.4945C9.59394 39.7673 9.75655 39.8054 9.97544 39.8054C10.5446 39.8054 11.1137 39.7863 11.689 39.8054C12.0268 39.818 12.1206 39.6785 12.1143 39.3613C12.1018 38.5745 12.1206 37.7878 12.1081 37.0011C12.1018 36.6522 12.2019 36.4809 12.5771 36.4999C13.0024 36.5253 13.4276 36.519 13.8467 36.4999C14.1781 36.4872 14.2782 36.6205 14.2782 36.944C14.2657 37.7307 14.2907 38.5174 14.2657 39.3042C14.2532 39.6975 14.3845 39.8117 14.766 39.8054C16.3483 39.7863 17.9243 39.799 19.5065 39.799V39.8054ZM19.6879 2.2972C18.5372 2.25279 17.3489 2.27817 16.1919 2.56367C11.9705 3.59781 9.11864 6.19267 7.64894 10.3356C7.46132 10.8622 7.49259 10.8875 8.03669 10.8875C9.33753 10.9002 10.6321 10.8241 11.9204 10.602C14.8285 10.1135 17.5553 9.16185 19.9819 7.42983C21.5328 6.31956 22.8274 4.9682 23.6467 3.19811C23.8593 2.73497 23.8281 2.69055 23.3403 2.57635C22.152 2.30355 20.9387 2.24645 19.6942 2.28451L19.6879 2.2972ZM32.0646 11.6869C32.0458 11.56 32.0458 11.5029 32.0333 11.4458C31.2078 7.93738 29.2253 5.34252 26.092 3.63587C25.8481 3.50264 25.7606 3.59781 25.673 3.81986C25.4353 4.42892 25.1477 5.01895 24.7724 5.54554C24.5973 5.79297 24.6098 5.97696 24.7662 6.22439C25.5104 7.42983 26.411 8.48935 27.4929 9.3966C28.7437 10.4498 30.1509 11.2301 31.6831 11.7694C31.8269 11.8202 32.0521 12.0042 32.0708 11.6996L32.0646 11.6869ZM4.90343 16.3945C4.90343 15.6712 4.88467 15.0622 4.90969 14.4594C4.92845 14.0724 4.74708 14.009 4.42813 14.0407C3.20234 14.1549 2.13916 15.3794 2.15167 16.6736C2.16418 18.0187 3.23361 19.1733 4.50943 19.2622C4.90969 19.2875 5.05353 19.148 4.99099 18.7609C4.84715 17.9362 4.9347 17.1051 4.90343 16.3945ZM34.4536 16.5277C34.4224 17.1939 34.5162 18.025 34.3723 18.8498C34.316 19.1733 34.4724 19.2748 34.7788 19.2241C35.892 19.0528 36.8552 17.8537 36.8552 16.6419C36.8552 15.4619 35.9233 14.3199 34.8226 14.1168C34.5162 14.0597 34.4411 14.1613 34.4536 14.4531C34.4724 15.0875 34.4536 15.7283 34.4536 16.5214V16.5277ZM21.7455 30.8407C20.3196 30.8407 18.9687 30.9359 17.6178 30.7836C17.524 30.7709 17.3989 30.7392 17.3301 30.8344C17.2676 30.9232 17.3489 31.0057 17.3927 31.0754C17.9243 31.8558 18.6748 32.2555 19.5878 32.2238C20.5197 32.1857 21.2452 31.7353 21.7392 30.8471L21.7455 30.8407Z" fill="#9EC1C3"/>
<path d="M17.4299 20.6574C17.5738 20.6574 17.7239 20.6701 17.8677 20.6574C18.2304 20.6257 18.4869 20.6891 18.6182 21.1205C18.737 21.5139 19.0935 21.7233 19.5063 21.7169C19.9378 21.7169 20.288 21.4949 20.4131 21.0761C20.5257 20.7082 20.732 20.6384 21.0572 20.6574C21.4638 20.6764 21.8765 20.6764 22.283 20.6574C22.627 20.6447 22.7083 20.8097 22.6583 21.1269C22.4019 22.7701 21.0948 23.9248 19.4812 23.9248C17.9052 23.9248 16.5856 22.732 16.348 21.1269C16.2979 20.8033 16.3855 20.6447 16.7295 20.6637C16.9609 20.6764 17.1985 20.6637 17.4299 20.6637V20.6574Z" fill="#9EC1C3"/>
<path d="M13.8401 19.3758C13.1397 19.3758 12.5455 18.7858 12.5455 18.0816C12.5455 17.3646 13.1272 16.7873 13.8339 16.7873C14.503 16.7873 15.1034 17.3837 15.1097 18.0562C15.1222 18.7604 14.5343 19.3631 13.8339 19.3695L13.8401 19.3758Z" fill="#9EC1C3"/>
<path d="M25.1662 19.3751C24.4658 19.3751 23.8842 18.7661 23.8967 18.0619C23.9092 17.3893 24.5033 16.793 25.1788 16.793C25.8855 16.793 26.4671 17.3767 26.4671 18.0872C26.4671 18.7915 25.8729 19.3815 25.1725 19.3751H25.1662Z" fill="#9EC1C3"/>
</g>
<path d="M31.3861 8H154C162.837 8 170 15.1634 170 24V24C170 32.8366 162.837 40 154 40H30" stroke="#9EC1C3" stroke-width="2"/>
<defs>
<clipPath id="clip0_259_9">
<rect width="39" height="42" fill="white"/>
</clipPath>
</defs>
</svg>
