<svg width="1398" height="835" viewBox="0 0 1398 835" fill="none" xmlns="http://www.w3.org/2000/svg">
<path d="M7.99546 785.784C8.11702 786.999 8.23859 788.214 8.36015 789.429C8.48172 790.644 8.36015 792.466 8.36015 794.532V834.988H-0.149414V774.972H7.99546L37.1711 813.97L64.4017 774.972H73.6407V834.988H64.4017V794.532C64.4017 794.532 64.4017 792.709 64.6449 790.522C64.888 788.336 64.888 786.756 64.888 785.784C64.1586 787.364 63.4292 788.7 62.8214 789.672C62.2136 790.644 61.7273 791.616 61.241 792.223L38.2652 825.633H35.7123L11.8855 793.195C11.8855 793.195 11.764 793.074 11.6424 792.831C9.9405 790.401 8.60328 788.093 7.87389 785.906L7.99546 785.784Z" fill="white"/>
<path d="M110.119 785.792V827.585H146.103V785.792H155.585V823.454C155.585 827.949 154.734 831.108 153.032 832.687C151.33 834.266 148.169 835.117 143.428 835.117H112.915C108.174 835.117 105.014 834.266 103.312 832.687C101.61 831.108 100.759 827.949 100.759 823.454V785.792H110.119Z" fill="white"/>
<path d="M178.305 834.995V785.792H187.665V827.585H225.958V834.995H178.305Z" fill="white"/>
<path d="M255.732 793.081V834.995H246.493V793.081H223.274V785.792H279.194V793.081H255.854H255.732Z" fill="white"/>
<path d="M302.175 834.993H292.937V785.911H302.175V834.993Z" fill="white"/>
<path d="M324.684 834.995V785.792H373.675V793.081H333.923V808.268H356.291V815.436H333.923V834.995H324.562H324.684Z" fill="white"/>
<path d="M397.128 785.792V827.585H433.111V785.792H442.593V823.454C442.593 827.949 441.743 831.108 440.041 832.687C438.339 834.266 435.178 835.117 430.437 835.117H399.924C395.183 835.117 392.022 834.266 390.32 832.687C388.619 831.108 387.768 827.949 387.768 823.454V785.792H397.128Z" fill="white"/>
<path d="M473.241 795.633C473.484 797.091 473.606 798.548 473.727 800.006C473.849 801.464 473.849 802.922 473.849 804.38V834.995H465.218V785.792H472.269L508.373 817.987C509.468 818.837 510.44 819.931 511.413 821.024C512.385 822.117 513.358 823.332 514.33 824.79C514.087 823.332 513.844 821.874 513.722 820.295C513.601 818.716 513.479 817.258 513.479 815.557V785.792H522.11V834.995H515.789L478.833 802.436C477.496 801.221 476.402 800.128 475.551 799.034C474.7 797.941 473.849 796.848 473.119 795.754L473.241 795.633Z" fill="white"/>
<path d="M587.639 793.079H553.236V827.582H587.639V815.797L597 817.498V823.329C597 827.825 596.149 830.862 594.447 832.563C592.745 834.264 589.584 834.993 584.843 834.993H555.91C551.169 834.993 548.009 834.264 546.428 832.684C544.848 831.105 543.997 828.068 543.997 823.451V797.574C543.997 792.957 544.848 789.92 546.55 788.34C548.252 786.761 551.413 785.911 556.032 785.911H584.965C589.706 785.911 592.866 786.761 594.568 788.34C596.27 789.92 597.121 793.079 597.121 797.574V802.19L587.761 803.77V793.2L587.639 793.079Z" fill="white"/>
<path d="M640.515 793.081V834.995H631.276V793.081H608.057V785.792H663.977V793.081H640.636H640.515Z" fill="white"/>
<path d="M686.816 834.993H677.577V785.911H686.816V834.993Z" fill="white"/>
<path d="M708.211 797.455C708.211 792.96 709.062 789.923 710.764 788.222C712.466 786.521 715.626 785.792 720.246 785.792H755.864C760.484 785.792 763.645 786.642 765.347 788.222C767.048 789.801 767.899 792.96 767.899 797.455V823.332C767.899 827.827 767.048 830.865 765.347 832.566C763.645 834.266 760.484 834.995 755.743 834.995H720.124C715.383 834.995 712.223 834.145 710.521 832.566C708.819 830.986 707.968 827.827 707.968 823.332V797.455H708.211ZM717.571 827.585H758.782V793.081H717.571V827.585Z" fill="white"/>
<path d="M797.573 795.633C797.816 797.091 797.938 798.548 798.059 800.006C798.181 801.464 798.181 802.922 798.181 804.38V834.995H789.55V785.792H796.601L832.705 817.987C833.8 818.837 834.772 819.931 835.745 821.024C836.717 822.117 837.69 823.332 838.662 824.79C838.419 823.332 838.176 821.874 838.054 820.295C837.933 818.716 837.811 817.258 837.811 815.557V785.792H846.442V834.995H840.121L803.165 802.436C801.828 801.221 800.734 800.128 799.883 799.034C799.032 797.941 798.181 796.848 797.452 795.754L797.573 795.633Z" fill="white"/>
<path d="M861.281 834.995L889.727 785.792H898.237L927.412 834.995H917.322L910.879 823.454H876.841L870.52 834.995H861.159H861.281ZM880.853 816.407H906.989L893.86 792.96L880.853 816.407Z" fill="white"/>
<path d="M942.219 834.995V785.792H951.579V827.585H989.872V834.995H942.219Z" fill="white"/>
<path d="M1103.3 783.236H1060.87V800.001H1098.68C1104.03 800.001 1107.67 800.973 1109.62 802.917C1111.56 804.861 1112.54 808.627 1112.54 814.094V820.898C1112.54 826.365 1111.56 830.131 1109.62 832.075C1107.67 834.019 1104.03 834.991 1098.56 834.991H1063.54C1058.07 834.991 1054.43 834.019 1052.36 831.953C1050.29 829.888 1049.44 826.243 1049.44 820.776V819.075L1058.8 816.889V826.486H1103.42V808.506H1065.73C1060.26 808.506 1056.62 807.534 1054.67 805.469C1052.73 803.403 1051.75 799.758 1051.75 794.291V789.067C1051.75 783.6 1052.73 779.834 1054.67 777.89C1056.62 775.946 1060.26 774.853 1065.73 774.853H1097.7C1103.05 774.853 1106.7 775.825 1108.77 777.769C1110.83 779.713 1111.81 783.114 1111.81 787.974V789.189L1103.18 791.619V782.993L1103.3 783.236Z" fill="white"/>
<path d="M1138.7 834.995V785.792H1180.27C1184.04 785.792 1186.84 786.521 1188.54 787.979C1190.24 789.437 1191.09 791.866 1191.09 795.268V806.324C1191.09 809.604 1190.24 812.034 1188.54 813.492C1186.84 814.95 1184.16 815.678 1180.27 815.678H1147.94V834.995H1138.58H1138.7ZM1176.14 792.96H1148.06V808.511H1176.14C1178.21 808.511 1179.66 808.146 1180.52 807.417C1181.37 806.688 1181.73 805.473 1181.73 803.773V797.577C1181.73 795.876 1181.37 794.661 1180.52 793.932C1179.66 793.203 1178.21 792.838 1176.14 792.838V792.96Z" fill="white"/>
<path d="M1195.3 834.995L1223.75 785.792H1232.26L1261.43 834.995H1251.34L1244.9 823.454H1210.86L1204.54 834.995H1195.18H1195.3ZM1214.87 816.407H1241.01L1227.88 792.96L1214.87 816.407Z" fill="white"/>
<path d="M1318.84 793.079H1284.43V827.582H1318.84V815.797L1328.2 817.498V823.329C1328.2 827.825 1327.34 830.862 1325.64 832.563C1323.94 834.264 1320.78 834.993 1316.04 834.993H1287.11C1282.37 834.993 1279.2 834.264 1277.62 832.684C1276.04 831.105 1275.19 828.068 1275.19 823.451V797.574C1275.19 792.957 1276.04 789.92 1277.75 788.34C1279.45 786.761 1282.61 785.911 1287.23 785.911H1316.16C1320.9 785.911 1324.06 786.761 1325.76 788.34C1327.47 789.92 1328.32 793.079 1328.32 797.574V802.19L1318.96 803.77V793.2L1318.84 793.079Z" fill="white"/>
<path d="M1347.87 834.995V785.792H1397.47V793.081H1357.11V805.716H1381.43V813.006H1357.11V827.706H1397.84V834.874H1347.75L1347.87 834.995Z" fill="white"/>
<path d="M778.737 653.494H124.838V0H778.737V263.876H764.149V14.5788H139.304V639.037H764.149V534.92H778.737V653.494Z" fill="white"/>
<path d="M477.393 374.664H398.862V400.42H473.625C485.417 400.42 493.318 402.364 497.452 406.373C501.585 410.382 503.651 417.793 503.651 428.727V445.128C503.651 456.063 501.585 463.473 497.452 467.483C493.318 471.492 485.417 473.436 473.625 473.436H399.47C387.678 473.436 379.776 471.492 375.643 467.483C371.51 463.473 369.443 456.063 369.443 445.128V441.848L394.121 436.746V450.96H478.974V423.625H404.211C392.541 423.625 384.639 421.681 380.627 417.672C376.616 413.663 374.549 406.252 374.549 395.318V382.075C374.549 371.141 376.616 363.73 380.627 359.721C384.639 355.712 392.541 353.768 404.211 353.768H472.288C483.593 353.768 491.373 355.712 495.628 359.6C499.883 363.487 502.071 370.291 502.071 380.131V382.683L477.393 388.514V374.907V374.664Z" fill="white"/>
<path d="M561.526 473.56V353.649H664.127C673.61 353.649 680.539 355.472 684.794 359.116C689.048 362.761 691.236 368.714 691.236 376.854V403.582C691.236 411.722 689.048 417.553 684.794 421.198C680.539 424.842 673.61 426.665 664.127 426.665H589V473.438H561.526V473.56ZM651.849 374.424H589.122V406.133H651.849C656.712 406.133 659.994 405.404 661.818 404.068C663.641 402.731 664.492 400.18 664.492 396.657V383.779C664.492 380.256 663.641 377.826 661.818 376.49C659.994 375.153 656.712 374.424 651.849 374.424Z" fill="white"/>
<path d="M698.768 473.56L766.601 353.649H793.467L862.273 473.56H830.909L816.443 447.318H740.343L726.363 473.56H698.524H698.768ZM752.378 425.693H804.894L779.001 376.854L752.378 425.693Z" fill="white"/>
<path d="M997.588 375.147H922.339V451.079H997.588V425.323L1025.55 431.154V445.369C1025.55 456.303 1023.48 463.835 1019.35 467.723C1015.22 471.61 1007.31 473.676 995.765 473.676H924.163C912.493 473.676 904.591 471.732 900.579 467.723C896.568 463.714 894.501 456.303 894.501 445.369V382.194C894.501 371.26 896.568 363.849 900.579 359.84C904.591 355.831 912.493 353.887 924.163 353.887H995.765C1007.31 353.887 1015.22 355.831 1019.35 359.84C1023.48 363.849 1025.55 371.26 1025.55 382.194V393.492L997.588 397.866V375.147Z" fill="white"/>
<path d="M1080.46 382.075C1080.46 371.141 1082.52 363.73 1086.54 359.721C1090.55 355.712 1098.45 353.768 1110.12 353.768H1198.5C1210.17 353.768 1218.07 355.712 1222.08 359.721C1226.09 363.73 1228.16 371.141 1228.16 382.075V445.25C1228.16 456.184 1226.09 463.716 1222.08 467.604C1218.07 471.492 1210.17 473.557 1198.5 473.557H1110.12C1098.45 473.557 1090.55 471.613 1086.54 467.604C1082.52 463.595 1080.46 456.184 1080.46 445.25V382.075ZM1108.42 450.96H1200.44V375.029H1108.42V450.96Z" fill="white"/>
</svg>
