<svg width="27" height="26" viewBox="0 0 27 26" fill="none" xmlns="http://www.w3.org/2000/svg">
<path d="M7.59782 9.27113C8.66149 9.27113 9.52377 8.44202 9.52377 7.41926C9.52377 6.39649 8.66149 5.56738 7.59782 5.56738C6.53415 5.56738 5.67188 6.39649 5.67188 7.41926C5.67187 8.44202 6.53415 9.27113 7.59782 9.27113Z" fill="white"/>
<path d="M11.2876 10.6397L14.4795 10.6397L14.4795 12.0457C14.4795 12.0457 15.3457 10.38 17.7024 10.38C19.8047 10.38 21.5462 11.3758 21.5462 14.4111V20.8117H18.2385V15.1867C18.2385 13.3962 17.2443 13.1992 16.4868 13.1992C14.9146 13.1992 14.6454 14.5032 14.6454 15.4203V20.8117H11.2876L11.2876 10.6397Z" fill="white"/>
<path d="M5.91892 10.6397H9.27672L9.27672 20.8117H5.91892L5.91892 10.6397Z" fill="white"/>
</svg>
