<svg width="26" height="26" viewBox="0 0 26 26" fill="none" xmlns="http://www.w3.org/2000/svg">
<path fill-rule="evenodd" clip-rule="evenodd" d="M3.25 13C3.25 17.8208 6.77083 21.8292 11.375 22.6417L11.4294 22.5982C11.4112 22.5947 11.3931 22.5911 11.375 22.5875L11.375 15.7083H8.9375V13H11.375V10.8333C11.375 8.39583 12.9458 7.04167 15.1667 7.04167C15.8708 7.04167 16.6292 7.15 17.3333 7.25833V9.75L16.0875 9.75C14.8958 9.75 14.625 10.3458 14.625 11.1042V13H17.225L16.7917 15.7083H14.625L14.625 22.5875C14.6069 22.5911 14.5888 22.5947 14.5706 22.5982L14.625 22.6417C19.2292 21.8292 22.75 17.8208 22.75 13C22.75 7.6375 18.3625 3.25 13 3.25C7.6375 3.25 3.25 7.6375 3.25 13Z" fill="white"/>
</svg>
