<svg width="24" height="24" viewBox="0 0 24 24" fill="none" xmlns="http://www.w3.org/2000/svg">
<path d="M22.9426 8.93565C22.7986 8.49193 22.4035 8.17678 21.936 8.13481L15.5862 7.56051L13.0753 1.70671C12.8902 1.2777 12.4686 1 12.0001 1C11.5316 1 11.11 1.2777 10.9248 1.70771L8.41396 7.56051L2.06316 8.13481C1.59654 8.17778 1.20243 8.49193 1.05757 8.93565C0.912715 9.37937 1.04649 9.86606 1.39948 10.1729L6.19917 14.3656L4.78385 20.5755C4.68029 21.0321 4.85821 21.5041 5.23856 21.778C5.443 21.9251 5.68219 22 5.92339 22C6.13136 22 6.33765 21.9442 6.52279 21.8338L12.0001 18.5731L17.4754 21.8338C17.876 22.0739 18.3811 22.052 18.7606 21.778C19.1411 21.5033 19.3189 21.0311 19.2153 20.5755L17.8 14.3656L22.5997 10.1737C22.9527 9.86606 23.0875 9.38021 22.9426 8.93565Z" fill="#789A8C"/>
</svg>
