<svg width="19" height="19" viewBox="0 0 19 19" fill="none" xmlns="http://www.w3.org/2000/svg">
<path d="M13.8588 11.3267L13.8517 11.3861C12.1108 10.5184 11.9288 10.4028 11.7039 10.7401C11.548 10.9736 11.0935 11.5033 10.9566 11.66C10.818 11.8144 10.6803 11.8263 10.4452 11.7194C10.2077 11.6006 9.4453 11.3513 8.5428 10.5438C7.8398 9.91438 7.36797 9.1425 7.22863 8.905C6.99667 8.50442 7.48197 8.44742 7.92372 7.61142C8.00288 7.44517 7.96251 7.31455 7.90392 7.19659C7.84455 7.07784 7.37192 5.91409 7.17401 5.45017C6.98401 4.98784 6.78847 5.04642 6.64201 5.04642C6.18601 5.00684 5.85272 5.01317 5.55901 5.31875C4.28126 6.72317 4.60347 8.17192 5.69676 9.7125C7.84534 12.5245 8.99009 13.0423 11.0833 13.7611C11.6485 13.9408 12.1639 13.9155 12.5716 13.8569C13.026 13.7848 13.9705 13.2861 14.1676 12.728C14.3695 12.1698 14.3695 11.7067 14.3101 11.5998C14.2515 11.493 14.0963 11.4336 13.8588 11.3267Z" fill="white"/>
<path d="M16.245 2.72982C10.1579 -3.15463 0.0839167 1.11324 0.0799583 9.41466C0.0799583 11.074 0.514583 12.6922 1.34267 14.1211L0 18.9994L5.01521 17.6915C11.2733 21.072 18.9968 16.5832 19 9.41941C19 6.90507 18.0183 4.53878 16.2331 2.7607L16.245 2.72982ZM17.4183 9.39328C17.4135 15.4361 10.7801 19.21 5.53375 16.1256L5.24875 15.9562L2.28 16.7281L3.07563 13.8425L2.88642 13.5456C-0.378417 8.34828 3.3725 1.55578 9.557 1.55578C11.6581 1.55578 13.6301 2.37516 15.1153 3.85953C16.5997 5.33124 17.4183 7.30328 17.4183 9.39328Z" fill="white"/>
</svg>
