<svg width="26" height="26" viewBox="0 0 26 26" fill="none" xmlns="http://www.w3.org/2000/svg">
<path fill-rule="evenodd" clip-rule="evenodd" d="M20.2156 9.83223C20.2219 9.99462 20.224 10.157 20.224 10.3193C20.224 15.2428 16.7606 20.9267 10.4272 20.9267C8.4817 20.9267 6.67265 20.3066 5.14844 19.2511C5.41787 19.2806 5.6915 19.3028 5.96933 19.3028C7.58243 19.3028 9.06815 18.7047 10.2467 17.7009C8.73993 17.6787 7.46766 16.5936 7.02887 15.1173C7.23952 15.1616 7.45645 15.1838 7.67829 15.1838C7.99111 15.1838 8.29484 15.1396 8.58596 15.051C7.00926 14.7115 5.82167 13.2057 5.82167 11.3972C5.82167 11.3751 5.82167 11.3676 5.82167 11.3529C6.28635 11.626 6.81821 11.7957 7.38297 11.8178C6.4578 11.1461 5.84965 10.002 5.84965 8.71023C5.84965 8.03113 6.01901 7.38891 6.31713 6.83529C8.0149 9.09404 10.5532 10.5777 13.4148 10.7328C13.356 10.4596 13.3259 10.1718 13.3259 9.88395C13.3259 7.82451 14.8676 6.15625 16.7697 6.15625C17.7599 6.15625 18.6543 6.60659 19.2821 7.32998C20.068 7.16758 20.8042 6.85758 21.4704 6.42945C21.2122 7.30047 20.667 8.03109 19.9546 8.48874C20.6516 8.40017 21.3165 8.20102 21.933 7.90576C21.4704 8.65129 20.8882 9.30814 20.2156 9.83223Z" fill="white"/>
</svg>
