<svg width="24" height="24" viewBox="0 0 24 24" fill="none" xmlns="http://www.w3.org/2000/svg">
<g clip-path="url(#clip0_257_2)">
<path d="M23.4761 -0.000570568C23.5547 0.0482723 23.6378 0.0921056 23.712 0.146584C24.0022 0.361994 24.0879 0.761503 23.8788 1.06646C23.7484 1.25619 23.7484 1.43654 23.79 1.64193C23.8456 1.91682 23.8999 2.1936 23.9281 2.47163C23.9977 3.1667 23.5036 3.65262 22.794 3.58312C22.4859 3.55306 22.1822 3.48606 21.8767 3.43283C21.4957 3.36646 21.4292 3.4297 21.4963 3.80291C21.5366 4.02521 21.58 4.24751 21.6139 4.47043C21.7661 5.46419 21.215 5.9783 20.2063 5.79044C19.8885 5.73158 19.5689 5.68399 19.1713 5.61824C19.2128 5.92695 19.2442 6.1674 19.2774 6.40786C19.303 6.59259 19.3509 6.77731 19.356 6.96267C19.3765 7.76732 18.8555 8.18311 18.0174 8.04159C17.7508 7.99651 17.4855 7.94516 17.2183 7.90446C17.1275 7.89068 17.0323 7.90258 16.884 7.90258C16.9326 8.21881 16.9773 8.49997 17.0182 8.78175C17.04 8.92828 17.0662 9.07481 17.0713 9.22196C17.0981 9.95648 16.6008 10.3948 15.8535 10.2915C15.5626 10.2514 15.2756 10.1738 14.9841 10.1456C14.846 10.1318 14.6811 10.1606 14.5609 10.227C14.1965 10.4286 13.8091 10.3879 13.5707 10.0917C13.3297 9.79242 13.3719 9.37538 13.6787 9.10361C14.0897 8.73854 14.5871 8.68407 15.1113 8.73792C15.2449 8.75169 15.3772 8.77298 15.5383 8.79427C15.4623 8.12425 15.3568 7.45047 15.9085 6.91633C16.4525 6.39033 17.1192 6.44606 17.8269 6.56378C17.7361 5.89564 17.6447 5.22937 18.1798 4.69085C18.7244 4.14293 19.4072 4.23185 20.1129 4.31764C20.0036 3.6401 19.9346 2.97822 20.4754 2.44282C21.0137 1.90994 21.6881 1.98758 22.3721 2.07525C22.3567 1.77656 22.3216 1.49853 22.3331 1.22238C22.3555 0.683856 22.5562 0.237382 23.0932 -0.00182295C23.221 -0.00182295 23.3483 -0.00182295 23.4761 -0.00182295V-0.000570568Z" fill="#789A8C"/>
<path d="M7.35522 6.93193C7.42618 6.99642 7.48435 7.04589 7.53869 7.09912C8.27769 7.82174 9.00773 8.55313 9.75887 9.26323C9.96599 9.45923 10.0427 9.64959 10.0286 9.93263C9.90206 12.5376 10.5401 14.9591 11.949 17.1683C12.4278 17.9184 13.0121 18.6047 13.5555 19.3299C13.4724 19.3618 13.3368 19.4144 13.2007 19.4651C12.4502 19.7419 11.6984 20.0162 10.9492 20.2967C10.8271 20.3424 10.7395 20.3443 10.627 20.2541C8.38125 18.4482 6.99915 16.1419 6.50756 13.3422C6.13294 11.2088 6.40335 9.13486 7.25869 7.13606C7.28554 7.07345 7.31687 7.01208 7.35458 6.93193H7.35522Z" fill="#789A8C"/>
<path d="M4.92793 10.3013C4.67222 14.4874 6.08053 18.0191 9.20015 20.9171C9.15157 20.9428 9.11002 20.9703 9.06399 20.9872C8.20098 21.3041 7.33669 21.6166 6.4756 21.9384C6.3324 21.9917 6.23587 21.9854 6.11569 21.8796C4.43442 20.4024 3.28885 18.6021 2.69881 16.4661C2.66812 16.3547 2.66493 16.2144 2.7052 16.1086C3.42246 14.21 4.14803 12.3151 4.87295 10.419C4.8883 10.3789 4.91003 10.3408 4.92857 10.3019L4.92793 10.3013Z" fill="#789A8C"/>
<path d="M11.4679 10.9594C11.5241 11.0095 11.5823 11.0584 11.636 11.111C13.5474 12.9826 15.4588 14.8543 17.3689 16.7266C17.8931 17.2401 17.7678 17.7887 17.0691 18.046C16.4746 18.2652 15.8814 18.4887 15.2817 18.6954C15.2012 18.7229 15.0573 18.6998 14.9972 18.6434C13.13 16.8832 11.9729 14.7535 11.5676 12.2419C11.4998 11.8229 11.4634 11.3996 11.4129 10.9788C11.4308 10.9726 11.4487 10.9663 11.4666 10.9601L11.4679 10.9594Z" fill="#789A8C"/>
<path d="M1.85508 18.3488C2.55188 19.9619 3.51525 21.342 4.77845 22.5587C4.17306 22.7816 3.60411 22.9908 3.03516 23.1999C2.37352 23.4429 1.7106 23.6833 1.05024 23.93C0.740196 24.0459 0.453166 24.0302 0.212162 23.7917C-0.0256453 23.5562 -0.0524945 23.2844 0.0676877 22.9732C0.641749 21.4891 1.20558 20.0019 1.77389 18.516C1.78987 18.474 1.81289 18.4352 1.85508 18.3488Z" fill="#789A8C"/>
<path d="M13.1098 2.52356C13.0458 2.0965 13.0113 1.75523 12.941 1.42084C12.8515 0.998163 13.0509 0.613682 13.439 0.519127C13.8462 0.419563 14.224 0.634972 14.334 1.05139C14.6811 2.36702 14.5245 3.6482 14.0226 4.89745C13.5994 5.95196 12.9365 6.85117 12.124 7.64893C11.8229 7.94449 11.3844 7.94762 11.0961 7.6721C10.8135 7.40221 10.8039 6.95762 11.0948 6.66393C11.8689 5.8812 12.512 5.01455 12.8202 3.95503C12.9627 3.46473 13.0254 2.9525 13.1098 2.52356Z" fill="#789A8C"/>
<path d="M21.9981 9.73943C22.4609 9.80706 22.9282 9.85402 23.3859 9.94795C23.8391 10.0413 24.0789 10.4257 23.9721 10.8133C23.857 11.2316 23.4907 11.4139 23.019 11.3105C21.6222 11.0056 20.327 11.3018 19.138 12.0288C18.6291 12.34 18.1804 12.7483 17.7137 13.1234C17.4804 13.3112 17.233 13.4001 16.9421 13.2987C16.671 13.2048 16.5151 13.0056 16.4697 12.7295C16.432 12.4978 16.5106 12.2949 16.6768 12.1327C17.9649 10.876 19.4678 10.0262 21.3006 9.81144C21.5295 9.78451 21.7615 9.78639 21.9923 9.7745C21.9942 9.7626 21.9961 9.7507 21.9981 9.7388V9.73943Z" fill="#789A8C"/>
<path d="M22.2543 6.95069C22.6411 6.94881 22.9907 7.29446 22.9837 7.67206C22.9767 8.04527 22.6391 8.37276 22.2601 8.37527C21.8835 8.37777 21.5415 8.05028 21.5307 7.67769C21.5191 7.30386 21.8688 6.95319 22.2549 6.95069H22.2543Z" fill="#789A8C"/>
<path d="M21.9575 14.6176C21.9595 15.0103 21.6552 15.319 21.2588 15.3259C20.8548 15.3327 20.5217 15.019 20.5179 14.6277C20.5141 14.2344 20.8401 13.9201 21.2486 13.9219C21.6494 13.9238 21.9556 14.2244 21.9575 14.6176Z" fill="#789A8C"/>
<path d="M17.9015 2.68645C17.9047 3.07657 17.5697 3.40406 17.1727 3.39968C16.7873 3.3953 16.4574 3.07281 16.4529 2.69647C16.4484 2.317 16.7981 1.9751 17.1862 1.98011C17.5716 1.98512 17.8983 2.3076 17.9015 2.68645Z" fill="#789A8C"/>
<path d="M9.36602 3.68204C9.3673 3.29255 9.6767 2.98697 10.075 2.98321C10.4803 2.97945 10.8031 3.29505 10.7999 3.69206C10.7967 4.07341 10.4758 4.39214 10.0878 4.39715C9.68885 4.40216 9.36474 4.08092 9.36538 3.68204H9.36602Z" fill="#789A8C"/>
</g>
<defs>
<clipPath id="clip0_257_2">
<rect width="24" height="24" fill="white"/>
</clipPath>
</defs>
</svg>
