<svg width="26" height="24" viewBox="0 0 26 24" fill="none" xmlns="http://www.w3.org/2000/svg">
<path d="M13 3.27246C10.4323 3.27246 10.1101 3.28282 9.10166 3.32519C8.09518 3.36773 7.40817 3.51482 6.80703 3.73064C6.18522 3.95355 5.65775 4.25173 5.13225 4.73701C4.60636 5.2221 4.28334 5.70901 4.04107 6.28282C3.80669 6.83791 3.64715 7.47228 3.60184 8.40101C3.55674 9.33191 3.54492 9.62955 3.54492 11.9997C3.54492 14.3699 3.55635 14.6665 3.60204 15.5974C3.64833 16.5265 3.80767 17.1606 4.04127 17.7155C4.28294 18.2895 4.60597 18.7765 5.13166 19.2615C5.65696 19.747 6.18443 20.0459 6.80585 20.2688C7.40738 20.4846 8.09459 20.6317 9.10087 20.6743C10.1093 20.7166 10.4314 20.727 12.9988 20.727C15.5666 20.727 15.8879 20.7166 16.8963 20.6743C17.9028 20.6317 18.5906 20.4846 19.1921 20.2688C19.8137 20.0459 20.3404 19.747 20.8657 19.2615C21.3916 18.7765 21.7146 18.2895 21.9569 17.7157C22.1893 17.1606 22.3489 16.5263 22.3961 15.5975C22.4414 14.6666 22.4532 14.3699 22.4532 11.9997C22.4532 9.62955 22.4414 9.3321 22.3961 8.40119C22.3489 7.4721 22.1893 6.83791 21.9569 6.28301C21.7146 5.70901 21.3916 5.2221 20.8657 4.73701C20.3398 4.25155 19.8139 3.95337 19.1915 3.73064C18.5888 3.51482 17.9014 3.36773 16.8949 3.32519C15.8865 3.28282 15.5654 3.27246 12.997 3.27246H13ZM12.1518 4.84519C12.4036 4.84482 12.6844 4.84519 13 4.84519C15.5243 4.84519 15.8234 4.85355 16.8203 4.89537C17.7421 4.93428 18.2424 5.07646 18.5756 5.19592C19.0168 5.3541 19.3314 5.54319 19.6621 5.84864C19.993 6.1541 20.1978 6.44501 20.3696 6.85228C20.499 7.15955 20.6532 7.62137 20.6951 8.47228C20.7404 9.39228 20.7503 9.66864 20.7503 11.9977C20.7503 14.3268 20.7404 14.6032 20.6951 15.5232C20.653 16.3741 20.499 16.8359 20.3696 17.1432C20.1982 17.5505 19.993 17.8405 19.6621 18.1457C19.3312 18.4512 19.017 18.6403 18.5756 18.7985C18.2427 18.9185 17.7421 19.0603 16.8203 19.0992C15.8236 19.141 15.5243 19.1501 13 19.1501C10.4755 19.1501 10.1763 19.141 9.17966 19.0992C8.25787 19.0599 7.75758 18.9177 7.42412 18.7983C6.98292 18.6401 6.66778 18.451 6.33688 18.1455C6.00598 17.8401 5.80114 17.5499 5.62939 17.1425C5.49998 16.8352 5.34576 16.3734 5.30381 15.5225C5.25851 14.6025 5.24945 14.3261 5.24945 11.9955C5.24945 9.665 5.25851 9.3901 5.30381 8.4701C5.34596 7.61919 5.49998 7.15737 5.62939 6.84973C5.80075 6.44246 6.00598 6.15155 6.33688 5.8461C6.66778 5.54064 6.98292 5.35155 7.42412 5.19301C7.75738 5.07301 8.25787 4.93119 9.17966 4.8921C10.0518 4.85573 10.3898 4.84482 12.1518 4.84301V4.84519ZM18.0466 6.29428C17.4202 6.29428 16.9121 6.76282 16.9121 7.34119C16.9121 7.91937 17.4202 8.38846 18.0466 8.38846C18.6729 8.38846 19.1811 7.91937 19.1811 7.34119C19.1811 6.76301 18.6729 6.29391 18.0466 6.29391V6.29428ZM13 7.51791C10.3187 7.51791 8.14481 9.52464 8.14481 11.9997C8.14481 14.4748 10.3187 16.4806 13 16.4806C15.6812 16.4806 17.8543 14.4748 17.8543 11.9997C17.8543 9.52464 15.681 7.51791 12.9998 7.51791H13ZM13 9.09064C14.7403 9.09064 16.1514 10.393 16.1514 11.9997C16.1514 13.6063 14.7403 14.9088 13 14.9088C11.2594 14.9088 9.84855 13.6063 9.84855 11.9997C9.84855 10.393 11.2594 9.09064 13 9.09064Z" fill="white"/>
</svg>
