<svg width="27" height="26" viewBox="0 0 27 26" fill="none" xmlns="http://www.w3.org/2000/svg">
<path d="M16.606 9.46308C15.7639 8.68893 14.6929 8.29475 13.5 8.29475C11.3838 8.29475 9.59262 9.66904 8.9537 11.5156C8.7912 11.9844 8.69887 12.4851 8.69887 13C8.69887 13.5149 8.79119 14.0156 8.95368 14.4844C9.59261 16.331 11.3838 17.7052 13.5 17.7052C14.5932 17.7052 15.5239 17.4283 16.2514 16.9595C17.1119 16.4055 17.6844 15.5781 17.8727 14.6016H13.5V11.5796L21.1523 11.5796C21.2483 12.0909 21.3 12.6236 21.3 13.1776C21.3 15.5568 20.4137 17.5597 18.8773 18.9198C17.533 20.1129 15.6937 20.8125 13.5 20.8125C10.3239 20.8125 7.57616 19.0618 6.23922 16.5085C5.68894 15.4539 5.375 14.2607 5.375 13C5.375 11.7394 5.68892 10.5462 6.23921 9.4915C7.57614 6.93822 10.3239 5.1875 13.5 5.1875C15.6901 5.1875 17.5293 5.96165 18.9364 7.2223L16.606 9.46308Z" fill="white"/>
</svg>
